<svg xmlns="http://www.w3.org/2000/svg" width="24" height="24" viewBox="0 0 24 24">
  <path fill="#FFF" d="M1164.98763,487 C1164.52042,487.007503 1164.14396,487.387908 1164.14396,487.856848 C1164.14396,487.86135 1164.14396,487.865101 1164.14396,487.869603 L1164.14396,487.868853 L1164.14396,502.934974 L1158.75496,497.543283 C1158.59973,497.38797 1158.386,497.292681 1158.14977,497.292681 C1157.67656,497.292681 1157.29335,497.676837 1157.29335,498.149529 C1157.29335,498.386626 1157.38934,498.600463 1157.54457,498.755776 L1164.39518,505.60981 C1164.39743,505.612061 1164.40118,505.615062 1164.40493,505.618064 L1164.40643,505.619564 C1164.41468,505.627818 1164.42368,505.636071 1164.43268,505.644324 L1164.43343,505.645075 C1164.44468,505.655579 1164.45668,505.665333 1164.46867,505.675837 L1164.47017,505.677338 C1164.47617,505.681839 1164.48442,505.687842 1164.49267,505.693844 L1164.49492,505.695345 C1164.50617,505.703598 1164.52042,505.714103 1164.53542,505.723857 L1164.53917,505.726107 C1164.54667,505.73136 1164.55792,505.738112 1164.56992,505.744865 L1164.57366,505.747116 C1164.58266,505.752368 1164.59541,505.759871 1164.60891,505.766624 L1164.61341,505.768875 C1164.62016,505.772626 1164.63216,505.778629 1164.64416,505.783131 L1164.64941,505.785382 C1164.65691,505.789133 1164.67041,505.795136 1164.6839,505.801138 L1164.68915,505.803389 C1164.6974,505.80714 1164.7124,505.811642 1164.7274,505.816894 L1164.7334,505.818395 C1164.7394,505.820646 1164.7514,505.825148 1164.7634,505.828899 L1164.7694,505.8304 C1164.77765,505.832651 1164.79264,505.837153 1164.80764,505.840154 L1164.81289,505.840904 C1164.82039,505.843155 1164.83464,505.846156 1164.84814,505.848407 L1164.85339,505.849157 C1164.86164,505.850658 1164.87589,505.852909 1164.89014,505.85441 L1164.89463,505.85516 C1164.90513,505.856661 1164.92013,505.858161 1164.93513,505.858911 L1164.93738,505.858911 C1164.95088,505.859662 1164.96588,505.860412 1164.98163,505.860412 L1164.98238,505.860412 C1164.98838,505.860412 1164.99588,505.861162 1165.00262,505.861162 C1165.00937,505.861162 1165.01687,505.861162 1165.02437,505.860412 L1165.02362,505.860412 C1165.04987,505.859662 1165.07537,505.858161 1165.10012,505.85516 L1165.09637,505.85591 C1165.10312,505.85516 1165.10462,505.85441 1165.10686,505.85441 L1165.10162,505.85516 C1165.12411,505.852159 1165.14211,505.849157 1165.16011,505.845406 L1165.15486,505.846156 C1165.17436,505.842405 1165.18786,505.839404 1165.20136,505.836402 L1165.19536,505.837903 C1165.21186,505.834151 1165.2231,505.83115 1165.2336,505.828149 L1165.2276,505.82965 C1165.25085,505.822897 1165.2681,505.817645 1165.2846,505.812393 L1165.2786,505.813893 C1165.2951,505.808641 1165.30485,505.804139 1165.31535,505.800388 L1165.3101,505.802639 C1165.33109,505.794385 1165.34609,505.788383 1165.36034,505.78088 L1165.35509,505.783131 C1165.38284,505.770375 1165.40384,505.759871 1165.42484,505.748617 L1165.42034,505.750868 C1165.42409,505.748617 1165.42484,505.747866 1165.42559,505.747116 L1165.42259,505.749367 C1165.44283,505.738112 1165.45858,505.727608 1165.47433,505.717104 L1165.47133,505.719355 C1165.48558,505.709601 1165.49683,505.702848 1165.50733,505.694595 L1165.50508,505.696095 C1165.52608,505.680339 1165.54407,505.666083 1165.56132,505.651077 L1165.56057,505.651827 C1165.56207,505.650327 1165.56432,505.648076 1165.56582,505.646575 L1165.56582,505.646575 C1165.58007,505.63457 1165.59357,505.623316 1165.60557,505.611311 L1172.45543,498.758027 C1172.61591,498.601963 1172.7149,498.384375 1172.7149,498.143527 C1172.7149,497.670085 1172.33169,497.286679 1171.85848,497.286679 C1171.84948,497.286679 1171.84123,497.286679 1171.83223,497.287429 L1171.83373,497.287429 C1171.60276,497.294182 1171.39503,497.391722 1171.24504,497.545534 L1171.24504,497.545534 L1165.85679,502.937224 L1165.85679,487.871104 C1165.85679,487.867352 1165.85679,487.863601 1165.85679,487.859849 C1165.85679,487.386407 1165.47358,487.003001 1165.00037,487.003001 C1164.99588,487.003001 1164.99138,487.003001 1164.98688,487.003001 L1164.98763,487.003001 L1164.98763,487 Z M1153.86842,509.286304 C1153.86467,509.286304 1153.86092,509.286304 1153.85642,509.286304 C1153.38321,509.286304 1153,509.66971 1153,510.143152 C1153,510.616594 1153.38396,511 1153.85642,511 C1153.86092,511 1153.86467,511 1153.86917,511 L1176.13158,511 C1176.13533,511 1176.13908,511 1176.14358,511 C1176.61679,511 1177,510.616594 1177,510.143152 C1177,509.66971 1176.61679,509.286304 1176.14358,509.286304 C1176.13908,509.286304 1176.13533,509.286304 1176.13083,509.286304 L1153.86842,509.286304 Z" transform="translate(-1153 -487)"/>
</svg>
