<svg xmlns="http://www.w3.org/2000/svg" width="36" height="36" viewBox="0 0 36 36"><g fill="#F62"><path d="M22.637203,25.2864213 C22.4300357,25.2864213 22.1899766,25.3239303 21.9164496,25.398082 C22.3218392,25.9696664 22.8158217,26.3467955 23.3949181,26.5288711 C23.6848947,26.6200492 23.9794879,26.6653502 24.2769322,26.6653502 C24.707709,26.6653502 25.0724511,26.5701317 25.3707891,26.379414 C24.732845,25.9154573 24.1574935,25.6053158 23.6433239,25.4474677 C23.2872756,25.3404235 22.95171,25.2864656 22.6372178,25.2864656 L22.637203,25.2864213 Z"/><path d="M18,0 C8.05859904,0 0,8.05933768 0,18 C0,27.941401 8.0578604,36.0007386 18,36.0007386 C27.9406623,36.0007386 36,27.941401 36,18 C36,8.05933768 27.9406623,0 18,0 Z M11.7416964,24.5406869 L9.18214945,24.5406869 L9.18214945,27.9323895 L7.64170873,27.9323895 L7.64170873,19.644811 L11.866084,19.644811 L11.866084,21.0739382 L9.18185399,21.0739382 L9.18185399,23.1115598 L11.741401,23.1115598 L11.741401,24.5403915 L11.7416964,24.5406869 Z M18.1768312,27.9323895 L17.2948172,25.7954943 L14.3627724,25.7954943 L13.4435307,27.9323895 L11.7541795,27.9323895 L15.1952234,19.644811 L16.4012803,19.644811 L19.8795519,27.9323895 L18.1768312,27.9323895 Z M28.8376708,28.0939677 L28.6137732,28.0939677 C27.9593795,28.0939677 27.3133916,27.8709344 26.6757208,27.4231318 C26.0461455,27.8706463 25.2547187,28.0939677 24.3025335,28.0939677 C23.0675957,28.0939677 22.0202733,27.6758808 21.1587197,26.8394559 C20.2974615,26.0024252 19.8666847,24.9795519 19.8666847,23.7703188 C19.8666847,22.5688416 20.2905404,21.5543888 21.1402536,20.7257048 C21.9891025,19.8982026 23.0266749,19.4833067 24.2523797,19.4833067 C25.4696639,19.4833067 26.5135886,19.9016816 27.3832673,20.738114 C28.2531675,21.5751447 28.6883024,22.5812508 28.6883024,23.7579096 C28.6883024,24.5283147 28.5307645,25.1944971 28.2159769,25.7580081 C28.1247987,25.9236267 27.9508187,26.1680143 27.69431,26.4908827 C27.9920719,26.6403398 28.2909935,26.7153638 28.5887332,26.7153638 L28.7001059,26.7153638 L28.8374492,26.7153638 L28.8376708,28.0939677 Z M18.4420042,2.40025853 C26.8588453,2.63541302 33.6107842,9.5269851 33.6107842,17.9996676 C33.6107842,18.0386192 33.6087644,18.07642 33.6076103,18.1150806 C25.6295234,16.9090238 19.3724755,10.4664287 18.4425235,2.40044319 L18.4420042,2.40025853 Z"/><path d="M24.2769913,20.9129139 C23.5074726,20.9129139 22.8360458,21.1962502 22.264779,21.7638311 C21.6926185,22.3313751 21.4069925,22.9958882 21.4069925,23.7581682 C21.4069925,23.9151299 21.411609,24.0602585 21.4196876,24.1926973 C21.7506367,24.0937338 22.1479456,24.0435283 22.6119318,24.0435283 C23.6062196,24.0435283 24.6374396,24.3877508 25.7064781,25.0753392 C26.0293465,25.2822184 26.2818148,25.472648 26.4641785,25.6469236 C26.9197737,25.0998695 27.1474236,24.4832648 27.1474236,23.7951447 C27.1474236,23.0002167 26.8681278,22.321625 26.3092111,21.7575231 C25.750324,21.1945956 25.0728699,20.9129139 24.2770555,20.9129139 L24.2769913,20.9129139 Z"/><polygon points="14.909 24.368 16.686 24.368 15.804 21.82"/></g></svg>