<?xml version="1.0" encoding="UTF-8" standalone="no"?><svg xmlns:inkscape="http://www.inkscape.org/namespaces/inkscape" xmlns:sodipodi="http://sodipodi.sourceforge.net/DTD/sodipodi-0.dtd" xmlns="http://www.w3.org/2000/svg" xmlns:svg="http://www.w3.org/2000/svg" width="40" height="40" fill="none" version="1.1" id="svg8" sodipodi:docname="handson.svgz">
  <defs id="defs12"/>
  <sodipodi:namedview id="namedview10" pagecolor="#ffffff" bordercolor="#e76f51" borderopacity="0.25" inkscape:showpageshadow="2" inkscape:pageopacity="0.0" inkscape:pagecheckerboard="0" inkscape:deskcolor="#e76f51"/>
  <path fill="#e76f51" stroke="#e76f51" stroke-width=".3" d="M29.386 10.426c0-.79-.624-1.434-1.39-1.434h-7.421v-2c0-1.098-.866-1.992-1.93-1.992h-4.89c-1.064 0-1.93.894-1.93 1.992v2h-7.42c-.767 0-1.39.643-1.39 1.433L3 17.391c0 .215.118.41.305.504.306.153.622.296.939.436v9.498c0 .79.623 1.434 1.39 1.434h21.133c.766 0 1.39-.644 1.39-1.434v-9.64c.324-.155.643-.315.954-.484a.562.562 0 0 0 .289-.495l-.014-6.784ZM12.908 6.992c0-.482.38-.875.848-.875h4.888c.46 0 .848.401.848.875v2h-6.584v-2ZM27.074 27.83a.32.32 0 0 1-.308.317H5.634a.316.316 0 0 1-.307-.317v-9.056c2.497.952 5.29 1.523 8.338 1.695v.844c0 .576.454 1.044 1.011 1.044h3.05c.557 0 1.011-.468 1.011-1.044v-.854c3.088-.19 5.882-.792 8.338-1.793v9.164Zm-12.328-6.59v-2.013h2.908v2.013h-2.908Zm3.99-1.904v-.182c0-.576-.454-1.044-1.012-1.044h-3.049c-.557 0-1.011.468-1.011 1.044v.195c-3.596-.21-6.818-.983-9.58-2.308l.013-6.614c0-.172.14-.317.307-.317h23.592c.167 0 .307.145.307.319l.014 6.443c-2.697 1.405-5.92 2.23-9.58 2.464Z" id="path2"/>
  <circle cx="28.6" cy="29" r="5.75" fill="#fff" stroke="#e76f51" stroke-width="1.3" id="circle4"/>
  <path stroke="#e76f51" stroke-linecap="round" stroke-linejoin="round" stroke-width="1.2" d="m25.969 29.658 1.945 1.742 3.46-3.769" id="path6"/>
</svg>