<?xml version="1.0" encoding="UTF-8" standalone="no"?>
<svg
   width="40"
   height="40"
   fill="none"
   version="1.1"
   id="svg8"
   sodipodi:docname="ibmpro.svgz"
   xmlns:inkscape="http://www.inkscape.org/namespaces/inkscape"
   xmlns:sodipodi="http://sodipodi.sourceforge.net/DTD/sodipodi-0.dtd"
   xmlns="http://www.w3.org/2000/svg"
   xmlns:svg="http://www.w3.org/2000/svg">
  <defs
     id="defs12" />
  <sodipodi:namedview
     id="namedview10"
     pagecolor="#ffffff"
     bordercolor="#000000"
     borderopacity="0.25"
     inkscape:showpageshadow="2"
     inkscape:pageopacity="0.0"
     inkscape:pagecheckerboard="0"
     inkscape:deskcolor="#d1d1d1" />
  <path
     fill="#1179EF"
     fill-rule="evenodd"
     d="M30.7 15.635a12.26 12.26 0 0 1 2 6.735c0 3.298-1.284 6.4-3.617 8.733a12.268 12.268 0 0 1-8.733 3.617c-3.299 0-6.4-1.285-8.733-3.617A12.27 12.27 0 0 1 8 22.37c0-2.43.701-4.748 2-6.735.112.426.318.827.616 1.166.127.145.268.273.42.388a10.579 10.579 0 0 0-1.332 4.549h3.83c.063-1.351.338-2.677.797-3.96h.325c.013.559.187 1.102.506 1.563a12.218 12.218 0 0 0-.362 2.397h4.918v-1.159h1.264v1.159h4.919a12.317 12.317 0 0 0-.362-2.398c.319-.46.492-1.003.506-1.561h.324c.46 1.282.735 2.608.797 3.959h3.83a10.584 10.584 0 0 0-1.331-4.549c.15-.115.292-.244.42-.388.297-.339.503-.74.615-1.166Zm-5.187 13.277a15.959 15.959 0 0 1-1.569 2.379 17.241 17.241 0 0 1-1.346 1.504A10.661 10.661 0 0 0 28.09 29.7a21.523 21.523 0 0 0-2.576-.788Zm-10.326 0c-.875.208-1.734.471-2.576.788a10.662 10.662 0 0 0 5.49 3.095 17.306 17.306 0 0 1-1.345-1.504 15.953 15.953 0 0 1-1.569-2.38Zm4.531-.592c-1.097.03-2.178.138-3.239.324a14.95 14.95 0 0 0 1.267 1.861 15.918 15.918 0 0 0 1.972 2.07V28.32Zm1.264 0v4.253c.555-.485 1.28-1.19 2-2.101.469-.595.881-1.204 1.239-1.828a22.233 22.233 0 0 0-3.239-.324Zm10.014-5.318h-3.83a13.619 13.619 0 0 1-1.093 4.745c.976.246 1.935.556 2.872.93a10.611 10.611 0 0 0 2.05-5.675Zm-17.462 0h-3.83a10.602 10.602 0 0 0 2.051 5.674 22.868 22.868 0 0 1 2.871-.929 13.62 13.62 0 0 1-1.092-4.745Zm12.367 0h-4.919v4.053c1.302.034 2.584.172 3.838.414a12.319 12.319 0 0 0 1.08-4.467Zm-6.183 0H14.8c.077 1.547.438 3.04 1.08 4.467a23.48 23.48 0 0 1 3.838-.414v-4.053Z"
     clip-rule="evenodd"
     id="path2" />
  <path
     stroke="#1179EF"
     stroke-width="1.2"
     d="m15 16.5 4.24 1.156a5 5 0 0 0 2.528.027L26.5 16.5M25.5 14.5l4.5-1M15 14.5l-3.5-1"
     id="path4" />
  <path
     fill="#1179EF"
     fill-rule="evenodd"
     stroke="#1179EF"
     stroke-width=".2"
     d="M20.667 5a3.204 3.204 0 0 0-3.197 3.197c0 1.073.535 2.027 1.351 2.607-.483.155-.94.37-1.362.636a3.643 3.643 0 0 0-1.334-1.037 2.359 2.359 0 0 0 .866-1.824 2.37 2.37 0 0 0-2.364-2.364 2.37 2.37 0 0 0-2.361 2.364c0 .733.338 1.39.866 1.824A3.635 3.635 0 0 0 11 13.707a.44.44 0 1 0 .879 0 2.741 2.741 0 0 1 2.748-2.749c.858 0 1.62.392 2.124 1.003a6.029 6.029 0 0 0-2.124 4.593.44.44 0 1 0 .88 0 5.15 5.15 0 0 1 2.135-4.183 5.14 5.14 0 0 1 3.025-.978c1.125 0 2.165.359 3.011.967.03.03.063.054.1.073a5.15 5.15 0 0 1 2.05 4.121.44.44 0 1 0 .879 0 6.029 6.029 0 0 0-2.122-4.592 2.737 2.737 0 0 1 2.122-1.004 2.74 2.74 0 0 1 2.748 2.749.44.44 0 1 0 .88 0c0-1.464-.874-2.73-2.127-3.302.526-.434.863-1.09.863-1.822a2.37 2.37 0 0 0-2.364-2.361 2.369 2.369 0 0 0-2.362 2.361c0 .732.336 1.388.862 1.821a3.64 3.64 0 0 0-1.331 1.036 6.02 6.02 0 0 0-1.363-.636 3.197 3.197 0 0 0 1.35-2.607A3.204 3.204 0 0 0 20.668 5Zm0 .879a2.312 2.312 0 0 1 2.318 2.318 2.312 2.312 0 0 1-2.318 2.318 2.312 2.312 0 0 1-2.318-2.318 2.312 2.312 0 0 1 2.318-2.318Zm-6.04 1.215c.826 0 1.486.659 1.486 1.485 0 .823-.66 1.483-1.486 1.483-.823 0-1.483-.66-1.483-1.483 0-.826.66-1.485 1.483-1.485Zm12.08.006c.826 0 1.485.66 1.485 1.483 0 .827-.659 1.483-1.485 1.483a1.475 1.475 0 0 1-1.483-1.483c0-.823.66-1.483 1.483-1.483Z"
     clip-rule="evenodd"
     id="path6" />
</svg>
