<svg width="115" height="50" viewBox="0 0 115 50" fill="none" xmlns="http://www.w3.org/2000/svg">
<path fill-rule="evenodd" clip-rule="evenodd" d="M0.331787 13.7901L1.19558 12.9191C1.6011 13.3756 2.11757 13.6083 2.70494 13.6083C3.34324 13.6083 3.6542 13.3246 3.6542 12.8846C3.6542 12.5572 3.51599 12.3136 2.9559 12.2371L2.35942 12.1607C1.09192 11.9953 0.513639 11.3733 0.513639 10.3641C0.513639 9.28575 1.35925 8.53467 2.77405 8.53467C3.67966 8.53467 4.3707 8.8365 4.86351 9.38025L3.99062 10.2604C3.70512 9.92399 3.31778 9.69125 2.69585 9.69125C2.11029 9.69125 1.82479 9.91674 1.82479 10.2786C1.82479 10.6914 2.04118 10.8478 2.54127 10.926L3.13593 11.0206C4.3707 11.2188 4.96534 11.7717 4.96534 12.8063C4.96534 13.9629 4.11974 14.7667 2.61947 14.7667C1.56655 14.7667 0.850065 14.3594 0.331787 13.7901Z" fill="black"/>
<path fill-rule="evenodd" clip-rule="evenodd" d="M5.99027 14.6617H7.26686V10.1318H5.99027V14.6617ZM5.8866 9.01891V8.82791C5.8866 8.46608 6.11028 8.19873 6.62855 8.19873C7.14501 8.19873 7.37051 8.46608 7.37051 8.82791V9.01891C7.37051 9.38074 7.14501 9.64807 6.62855 9.64807C6.11028 9.64807 5.8866 9.38074 5.8866 9.01891Z" fill="black"/>
<path fill-rule="evenodd" clip-rule="evenodd" d="M9.72794 14.663C8.85686 14.663 8.46045 14.2229 8.46045 13.4191V8.27637H9.73703V13.6701H10.3062V14.663H9.72794Z" fill="black"/>
<path fill-rule="evenodd" clip-rule="evenodd" d="M11.9921 14.6638L10.5082 10.1338H11.7666L12.3285 11.9633L12.7503 13.6035H12.8213L13.2432 11.9633L13.7869 10.1338H14.9944L13.5105 14.6638H11.9921Z" fill="black"/>
<path fill-rule="evenodd" clip-rule="evenodd" d="M16.639 11.8988V11.9679H18.2265V11.8897C18.2265 11.3368 17.9756 10.9659 17.4683 10.9659C16.9572 10.9659 16.639 11.3368 16.639 11.8988ZM15.3187 12.3912C15.3187 10.9582 16.0771 10.0254 17.4409 10.0254C18.943 10.0254 19.5467 11.1128 19.5467 12.3385V12.7185H16.639V12.7877C16.639 13.3823 16.9571 13.7624 17.6391 13.7624C18.1755 13.7624 18.4684 13.5115 18.7539 13.2186L19.3921 14.0134C18.9866 14.4789 18.321 14.7644 17.4936 14.7644C16.1043 14.7644 15.3187 13.8406 15.3187 12.3912Z" fill="black"/>
<path fill-rule="evenodd" clip-rule="evenodd" d="M20.4579 14.6638V10.1338H21.7345V11.1176H21.7781C21.8817 10.6157 22.2273 10.1338 22.9346 10.1338H23.1584V11.3249H22.8401C22.0963 11.3249 21.7345 11.4886 21.7345 12.0142V14.6638H20.4579Z" fill="black"/>
<path fill-rule="evenodd" clip-rule="evenodd" d="M1.53147 24.2967H3.31724C3.93917 24.2967 4.31924 23.9676 4.31924 23.3638V23.0711C4.31924 22.4673 3.93917 22.1382 3.31724 22.1382H1.53147V24.2967ZM1.53147 21.5183H3.19722C3.76641 21.5183 4.11193 21.2164 4.11193 20.6818V20.3872C4.11193 19.8525 3.76641 19.5507 3.19722 19.5507H1.53147V21.5183ZM0.807739 18.9121H3.28273C4.27563 18.9121 4.88847 19.5232 4.88847 20.4651C4.88847 21.3617 4.31019 21.6817 3.91375 21.7418V21.7944C4.34474 21.8199 5.09579 22.1909 5.09579 23.1929C5.09579 24.184 4.43203 24.935 3.54278 24.935H0.807739V18.9121Z" fill="black"/>
<path fill-rule="evenodd" clip-rule="evenodd" d="M9.12236 24.2108H9.08778C8.91503 24.6327 8.57862 25.0401 7.83669 25.0401C6.92198 25.0401 6.33459 24.4181 6.33459 23.3398V20.4829H7.02563V23.218C7.02563 24.0126 7.37842 24.4181 8.04399 24.4181C8.5877 24.4181 9.12236 24.1508 9.12236 23.5635V20.4829H9.81161V24.9346H9.12236V24.2108Z" fill="black"/>
<path fill-rule="evenodd" clip-rule="evenodd" d="M10.8618 24.1684L11.3546 23.7719C11.6983 24.2029 12.1128 24.4539 12.6748 24.4539C13.2603 24.4539 13.6059 24.1848 13.6059 23.7283C13.6059 23.3828 13.4167 23.1154 12.8293 23.0299L12.4747 22.9773C11.6564 22.8572 11.0436 22.5208 11.0436 21.6915C11.0436 20.8114 11.7255 20.3804 12.6312 20.3804C13.3477 20.3804 13.8205 20.6477 14.1842 21.0969L13.7259 21.5115C13.5277 21.2351 13.1476 20.966 12.5784 20.966C12.0092 20.966 11.7073 21.2351 11.7073 21.657C11.7073 22.0879 12.0092 22.2608 12.5621 22.348L12.9076 22.3989C13.8914 22.5463 14.2714 22.9773 14.2714 23.6501C14.2714 24.5139 13.6404 25.0394 12.6221 25.0394C11.8019 25.0394 11.2582 24.6958 10.8618 24.1684Z" fill="black"/>
<path fill-rule="evenodd" clip-rule="evenodd" d="M15.4901 24.9385H16.1812V20.4849H15.4901V24.9385ZM15.4138 19.0518V18.9391C15.4138 18.7063 15.5428 18.5518 15.8357 18.5518C16.1284 18.5518 16.2593 18.7063 16.2593 18.9391V19.0518C16.2593 19.2846 16.1284 19.4392 15.8357 19.4392C15.5428 19.4392 15.4138 19.2846 15.4138 19.0518Z" fill="black"/>
<path fill-rule="evenodd" clip-rule="evenodd" d="M17.6503 24.9358V20.4822H18.3413V21.2079H18.374C18.5904 20.7077 18.9705 20.3804 19.6343 20.3804C20.5508 20.3804 21.1291 21.0005 21.1291 22.0789V24.9358H20.4381V22.2007C20.4381 21.406 20.0925 21.0005 19.4288 21.0005C18.8759 21.0005 18.3413 21.2769 18.3413 21.8461V24.9358H17.6503Z" fill="black"/>
<path fill-rule="evenodd" clip-rule="evenodd" d="M22.9537 22.3042V22.3642H25.4142V22.2697C25.4142 21.4841 24.9378 20.9586 24.2322 20.9586C23.4812 20.9586 22.9537 21.5277 22.9537 22.3042ZM22.2299 22.7099C22.2299 21.2951 23.0228 20.3804 24.2322 20.3804C25.4214 20.3804 26.1561 21.2951 26.1561 22.5554V22.8827H22.9537V23.09C22.9537 23.8574 23.4465 24.4357 24.2739 24.4357C24.8358 24.4357 25.2668 24.1593 25.4997 23.6683L25.9907 24.021C25.7069 24.6248 25.0687 25.0394 24.2322 25.0394C23.0228 25.0394 22.2299 24.1247 22.2299 22.7099Z" fill="black"/>
<path fill-rule="evenodd" clip-rule="evenodd" d="M26.8761 24.1684L27.3688 23.7719C27.7126 24.2029 28.1272 24.4539 28.6891 24.4539C29.2747 24.4539 29.6202 24.1848 29.6202 23.7283C29.6202 23.3828 29.4311 23.1154 28.8437 23.0299L28.4891 22.9773C27.6708 22.8572 27.0579 22.5208 27.0579 21.6915C27.0579 20.8114 27.7398 20.3804 28.6455 20.3804C29.362 20.3804 29.8348 20.6477 30.1985 21.0969L29.742 21.5115C29.542 21.2351 29.1619 20.966 28.5928 20.966C28.0235 20.966 27.7217 21.2351 27.7217 21.657C27.7217 22.0879 28.0235 22.2608 28.5763 22.348L28.9219 22.3989C29.9057 22.5463 30.2857 22.9773 30.2857 23.6501C30.2857 24.5139 29.6548 25.0394 28.6364 25.0394C27.8163 25.0394 27.2725 24.6958 26.8761 24.1684Z" fill="black"/>
<path fill-rule="evenodd" clip-rule="evenodd" d="M31.0313 24.1684L31.5241 23.7719C31.8678 24.2029 32.2825 24.4539 32.8444 24.4539C33.4299 24.4539 33.7755 24.1848 33.7755 23.7283C33.7755 23.3828 33.5863 23.1154 32.999 23.0299L32.6443 22.9773C31.826 22.8572 31.2131 22.5208 31.2131 21.6915C31.2131 20.8114 31.8951 20.3804 32.8007 20.3804C33.5172 20.3804 33.99 20.6477 34.3537 21.0969L33.8973 21.5115C33.6972 21.2351 33.3171 20.966 32.748 20.966C32.1788 20.966 31.8769 21.2351 31.8769 21.657C31.8769 22.0879 32.1788 22.2608 32.7316 22.348L33.0771 22.3989C34.061 22.5463 34.441 22.9773 34.441 23.6501C34.441 24.5139 33.81 25.0394 32.7916 25.0394C31.9715 25.0394 31.4277 24.6958 31.0313 24.1684Z" fill="black"/>
<path fill-rule="evenodd" clip-rule="evenodd" d="M1.53147 32.0022H3.20632C3.77551 32.0022 4.11193 31.6913 4.11193 31.1385V30.6893C4.11193 30.1383 3.77551 29.8273 3.20632 29.8273H1.53147V32.0022ZM0.807739 35.2119V29.189H3.20635C4.28472 29.189 4.88847 29.8527 4.88847 30.9147C4.88847 31.9749 4.28472 32.6404 3.20635 32.6404H1.5315V35.2119H0.807739Z" fill="black"/>
<path fill-rule="evenodd" clip-rule="evenodd" d="M8.3109 33.9127V33.1798H7.39619C6.61059 33.1798 6.2578 33.4198 6.2578 33.8527V34.0327C6.2578 34.4746 6.60332 34.7237 7.13614 34.7237C7.81808 34.7237 8.3109 34.3691 8.3109 33.9127ZM9.12198 35.2075C8.61282 35.2075 8.40549 34.8965 8.35457 34.482H8.31091C8.12179 35.0257 7.64716 35.3112 7.02523 35.3112C6.08506 35.3112 5.53223 34.793 5.53223 33.9637C5.53223 33.1271 6.13597 32.6616 7.43075 32.6616H8.31091V32.2215C8.31091 31.5924 7.96539 31.2468 7.25799 31.2468C6.72335 31.2468 6.36874 31.5051 6.12688 31.9106L5.71408 31.5232C5.95594 31.0486 6.49058 30.6504 7.29254 30.6504C8.36182 30.6504 9.00198 31.2123 9.00198 32.1525V34.6038H9.51115V35.2075H9.12198Z" fill="black"/>
<path fill-rule="evenodd" clip-rule="evenodd" d="M10.4986 35.2118V30.7583H11.1896V31.5784H11.2314C11.3878 31.1565 11.7933 30.7583 12.5172 30.7583H12.7863V31.4493H12.3808C11.637 31.4493 11.1896 31.7675 11.1896 32.1912V35.2118H10.4986Z" fill="black"/>
<path fill-rule="evenodd" clip-rule="evenodd" d="M14.6864 35.2094C14.2118 35.2094 13.9536 34.9076 13.9536 34.4766V31.3597H13.2189V30.7559H13.6335C13.9282 30.7559 14.0227 30.6523 14.0227 30.3504V29.5229H14.6428V30.7559H15.6193V31.3597H14.6428V34.6057H15.5503V35.2094H14.6864Z" fill="black"/>
<path fill-rule="evenodd" clip-rule="evenodd" d="M16.7347 35.2075V30.754H17.4257V31.4796H17.4585C17.6749 30.9795 18.055 30.6504 18.7187 30.6504C19.6352 30.6504 20.2136 31.2723 20.2136 32.3506V35.2075H19.5225V32.4725C19.5225 31.6778 19.177 31.2723 18.5132 31.2723C17.9604 31.2723 17.4257 31.5487 17.4257 32.1179V35.2075H16.7347Z" fill="black"/>
<path fill-rule="evenodd" clip-rule="evenodd" d="M22.0373 32.5764V32.6364H24.4978V32.5419C24.4978 31.7563 24.0213 31.2307 23.3158 31.2307C22.5648 31.2307 22.0373 31.7999 22.0373 32.5764ZM21.3136 32.9817C21.3136 31.5669 22.1065 30.6504 23.3158 30.6504C24.5051 30.6504 25.2397 31.5669 25.2397 32.8271V33.1545H22.0373V33.3618C22.0373 34.1291 22.5302 34.7075 23.3576 34.7075C23.9195 34.7075 24.3505 34.431 24.5833 33.94L25.0742 34.2928C24.7906 34.8965 24.1523 35.3112 23.3158 35.3112C22.1065 35.3112 21.3136 34.3965 21.3136 32.9817Z" fill="black"/>
<path fill-rule="evenodd" clip-rule="evenodd" d="M26.3829 35.2118V30.7583H27.0739V31.5784H27.1158C27.2722 31.1565 27.6777 30.7583 28.4014 30.7583H28.6706V31.4493H28.2651C27.5213 31.4493 27.0739 31.7675 27.0739 32.1912V35.2118H26.3829Z" fill="black"/>
<path fill-rule="evenodd" clip-rule="evenodd" d="M0 50.0001H114.566V49.0908H0V50.0001Z" fill="black"/>
<path fill-rule="evenodd" clip-rule="evenodd" d="M0 0.909254H114.566V0H0V0.909254Z" fill="black"/>
<path fill-rule="evenodd" clip-rule="evenodd" d="M112.803 25.6355C112.879 25.6355 112.921 25.6027 112.921 25.53V25.459C112.921 25.3881 112.879 25.3536 112.803 25.3536H112.621V25.6355H112.803ZM112.621 26.1609H112.379V25.1625H112.832C113.056 25.1625 113.17 25.2971 113.17 25.4789C113.17 25.6353 113.099 25.7353 112.99 25.779L113.214 26.1609H112.947L112.761 25.8172H112.621V26.1609ZM113.496 25.7174V25.5938C113.496 25.1919 113.179 24.8773 112.764 24.8773C112.35 24.8773 112.034 25.1919 112.034 25.5938V25.7174C112.034 26.1175 112.35 26.4321 112.764 26.4321C113.179 26.4321 113.496 26.1175 113.496 25.7174ZM111.81 25.6556C111.81 25.0974 112.235 24.6718 112.764 24.6718C113.296 24.6718 113.719 25.0974 113.719 25.6556C113.719 26.214 113.296 26.6376 112.764 26.6376C112.235 26.6376 111.81 26.214 111.81 25.6556ZM98.0604 9.88544L97.6237 8.63428H90.4662V9.88544H98.0604ZM98.8895 12.2715L98.4529 11.0203H90.4662V12.2715H98.8895ZM104.214 26.5864H110.464V25.3371H104.214V26.5864ZM104.214 24.2007H110.464V22.9514H104.214V24.2007ZM104.214 21.8147H107.964V20.5654H104.214V21.8147ZM104.214 19.429H107.964V18.1797H104.214V19.429ZM104.214 17.043H107.964V15.7937H100.815L100.464 16.803L100.114 15.7937H92.967V17.043H96.7145V15.8955L97.1187 17.043H103.812L104.214 15.8955V17.043ZM107.964 13.406H101.646L101.212 14.6571H107.964V13.406ZM92.967 19.429H96.7162V18.1797H92.967V19.429ZM92.967 21.8147H96.7162V20.5654H92.967V21.8147ZM90.4662 24.2007H96.7162V22.9514H90.4662V24.2007ZM90.4662 26.5864H96.7162V25.3371H90.4662V26.5864ZM103.305 8.63428L102.87 9.88544H110.464V8.63428H103.305ZM102.041 12.2715H110.464V11.0203H102.475L102.041 12.2715ZM92.967 14.6571H99.7187L99.282 13.406H92.967V14.6571ZM97.957 19.429H102.974L103.412 18.1797H97.5187L97.957 19.429ZM98.7953 21.8147H102.135L102.575 20.5654H98.3553L98.7953 21.8147ZM99.6311 24.2007H101.299L101.737 22.9514H99.1936L99.6311 24.2007ZM100.463 26.5864L100.899 25.3371H100.032L100.463 26.5864ZM75.469 26.5864H84.6704C85.9221 26.5864 87.0421 26.1136 87.8912 25.3371H75.469V26.5864ZM85.2396 20.5654V21.8147H89.442C89.442 21.3819 89.3845 20.9636 89.2754 20.5654H85.2396ZM77.9677 21.8147H81.7192V20.5654H77.9677V21.8147ZM85.2396 14.6571H89.2754C89.3845 14.2588 89.442 13.8406 89.442 13.406H85.2396V14.6571ZM77.9677 14.6573H81.7192V13.408H77.9677V14.6573ZM84.6704 8.63428H75.469V9.88544H87.8912C87.0421 9.10894 85.9129 8.63428 84.6704 8.63428ZM88.8046 11.0203H75.469V12.2715H89.3062C89.1987 11.8259 89.0279 11.4077 88.8046 11.0203ZM77.9677 15.7937V17.043H87.7604C88.1745 16.6902 88.5279 16.2683 88.802 15.7937H77.9677ZM87.7604 18.1797H77.9677V19.429H88.802C88.5279 18.9544 88.1745 18.5326 87.7604 18.1797ZM75.469 24.2007H88.8046C89.0279 23.8152 89.1987 23.3969 89.3062 22.9514H75.469V24.2007ZM65.4708 9.88568H74.2197V8.63636H65.4708V9.88568ZM65.4708 12.2713H74.2197V11.022H65.4708V12.2713ZM67.9677 14.6553H71.7175V13.406H67.9677V14.6553ZM67.9695 17.043H71.7192V15.7937H67.9695V17.043ZM67.9695 19.429H71.7192V18.1797H67.9695V19.429ZM67.9695 21.8147H71.7192V20.5654H67.9695V21.8147ZM65.4708 24.2007H74.2197V22.9514H65.4708V24.2007ZM65.4708 26.5864H74.2197V25.3371H65.4708V26.5864Z" fill="#002D9C"/>
</svg>
